<svg width="14" height="14" viewBox="0 0 14 14" fill="none" xmlns="http://www.w3.org/2000/svg">
<path d="M7.00327 3.85439C6.4554 3.85439 5.92997 4.07203 5.54257 4.45943C5.15517 4.84683 4.93753 5.37226 4.93753 5.92013C4.93753 6.46799 5.15517 6.99342 5.54257 7.38082C5.92997 7.76822 6.4554 7.98586 7.00327 7.98586C7.55113 7.98586 8.07656 7.76822 8.46396 7.38082C8.85136 6.99342 9.069 6.46799 9.069 5.92013C9.069 5.37226 8.85136 4.84683 8.46396 4.45943C8.07656 4.07203 7.55113 3.85439 7.00327 3.85439ZM7.00327 8.81273C4.77712 8.81273 3.50326 9.59002 3.3093 11.0586C4.30705 12.003 5.62869 12.5293 7.00253 12.5293C8.37637 12.5293 9.69801 12.003 10.6958 11.0586C10.5033 9.59002 9.22941 8.81273 7.00327 8.81273ZM7.00327 13.3576C5.78243 13.3579 4.58871 12.9976 3.57188 12.3219C2.55506 11.6463 1.76041 10.6854 1.28765 9.5598C0.814895 8.43421 0.685081 7.19408 0.914499 5.99499C1.14392 4.79591 1.72235 3.69128 2.57722 2.81971C3.70928 1.65913 5.25321 0.991569 6.87421 0.961792H7.00327C8.22398 0.961831 9.41749 1.32234 10.4341 1.9981C11.4507 2.67386 12.2451 3.63477 12.7177 4.76029C13.1903 5.88582 13.32 7.12583 13.0905 8.32478C12.861 9.52373 12.2826 10.6282 11.4279 11.4997C10.2963 12.6597 8.75327 13.3272 7.13306 13.3576H7.00327Z" fill="#111827"/>
</svg>
