<svg width="14" height="13" viewBox="0 0 14 13"  xmlns="http://www.w3.org/2000/svg">
<path fill-rule="evenodd" clip-rule="evenodd" d="M7.15072 1.44444C6.92219 1.16194 6.65578 0.915262 6.36186 0.709512C5.71234 0.254827 4.92848 0 4.1223 0C2.04952 0 0.420898 1.71444 0.420898 3.89646C0.420898 4.67177 0.593009 5.40801 0.887833 6.10844C1.80226 8.28287 3.89736 10.1178 5.70078 11.6973C6.21998 12.1521 6.71501 12.5856 7.15072 13C7.58644 12.5856 8.08146 12.1521 8.60067 11.6973C10.404 10.1179 12.4991 8.28293 13.4136 6.10856C13.7084 5.40809 13.8805 4.67181 13.8805 3.89646C13.8805 1.71444 12.2519 0 10.1791 0C9.37296 0 8.58911 0.254827 7.93958 0.709512C7.64566 0.915262 7.37925 1.16194 7.15072 1.44444ZM7.15072 11.1005C7.36795 10.9073 7.59 10.7125 7.81171 10.5179C7.99951 10.3532 8.18706 10.1886 8.37122 10.0254C9.10846 9.37221 9.83011 8.70856 10.4691 8.01308C11.2599 7.15241 11.8477 6.32401 12.1899 5.50636C12.4156 4.96651 12.5346 4.43179 12.5346 3.89646C12.5346 2.53828 11.5331 1.44444 10.1791 1.44444C9.37935 1.44444 8.63298 1.81547 8.16712 2.39136L7.15072 3.64783L6.13432 2.39136C5.66847 1.81547 4.92209 1.44444 4.1223 1.44444C2.76832 1.44444 1.76686 2.53828 1.76686 3.89646C1.76686 4.43179 1.88581 4.96651 2.11152 5.50636C2.45377 6.32401 3.04151 7.15241 3.83231 8.01308C4.47133 8.70856 5.19298 9.37221 5.93022 10.0254C6.11439 10.1886 6.30194 10.3532 6.48974 10.5179C6.71145 10.7125 6.93349 10.9073 7.15072 11.1005Z" />
</svg>
