<svg width="24" height="20" viewBox="0 0 24 20" fill="none" xmlns="http://www.w3.org/2000/svg">
<path fill-rule="evenodd" clip-rule="evenodd" d="M15.7284 14.7979C14.0726 16.5494 11.6983 17.6468 9.06079 17.6468C4.05665 17.6468 0 13.6964 0 8.82339C0 3.95036 4.05665 0 9.06079 0C14.0649 0 18.1216 3.95036 18.1216 8.82339C18.1216 10.5508 17.6118 12.1623 16.7307 13.523L23.1934 18.7675L22.1388 19.9999L15.7284 14.7979ZM16.4743 8.82358C16.4743 12.8106 13.1552 16.0427 9.06095 16.0427C4.96666 16.0427 1.64758 12.8106 1.64758 8.82358C1.64758 4.83656 4.96666 1.60445 9.06095 1.60445C13.1552 1.60445 16.4743 4.83656 16.4743 8.82358Z" fill="#111827"/>
</svg>
